<svg width="119.15263671875px" height="137.63999023437498px" xmlns="http://www.w3.org/2000/svg" viewBox="190.423681640625 6.180004882812511 119.15263671875 137.63999023437498" style="background: rgba(244, 244, 244, 0);" preserveAspectRatio="xMidYMid"><defs><linearGradient id="editing-outline-gradient" x1="-0.4702957262759965" x2="1.4702957262759964" y1="0.2580781044003323" y2="0.7419218955996677"><stop offset="0" stop-color="#ffffff"></stop><stop offset="1" stop-color="#e1e1e5"></stop></linearGradient><filter id="editing-outline" x="-100%" y="-100%" width="300%" height="300%"><feMorphology in="SourceGraphic" operator="dilate" radius="3" result="outline"></feMorphology><feComposite operator="out" in="outline" in2="SourceAlpha"></feComposite></filter></defs><g filter="url(#editing-outline)"><g transform="translate(213.93500232696533, 96.69500160217285)"><path d="M25.15-8.58L25.15-8.58L25.15-8.58Q24.06 0.83 12.54 0.83L12.54 0.83L12.54 0.83Q6.53 0.83 1.79-1.86L1.79-1.86L1.79-13.06L8.32-13.50L8.32-8.45L8.32-8.45Q8.32-7.49 8.58-7.04L8.58-7.04L8.58-7.04Q8.83-6.59 9.92-6.18L9.92-6.18L9.92-6.18Q11.01-5.76 13.28-5.76L13.28-5.76L13.28-5.76Q15.55-5.76 16.58-7.14L16.58-7.14L16.58-7.14Q17.60-8.51 17.60-11.58L17.60-11.58L17.60-36.86L12.61-37.12L12.61-42.56L29.38-42.56L29.38-37.38L27.26-37.18L27.26-37.18Q25.41-36.99 25.41-35.20L25.41-35.20L25.41-15.30L25.41-15.30Q25.41-10.75 25.15-8.58ZM50.69 0L32.51 0L32.51-5.18L34.62-5.38L34.62-5.38Q36.48-5.57 36.48-7.17L36.48-7.17L36.48-36.93L32.83-37.12L32.83-42.56L50.37-42.56L50.37-42.56Q59.78-42.56 65.06-37.57L65.06-37.57L65.06-37.57Q70.34-32.58 70.34-22.78L70.34-22.78L70.34-22.78Q70.34-16.70 68.74-12.19L68.74-12.19L68.74-12.19Q67.14-7.68 64.38-5.12L64.38-5.12L64.38-5.12Q58.88 0 50.69 0L50.69 0ZM49.98-36.35L44.29-36.35L44.29-6.14L50.82-6.14L50.82-6.14Q56.32-6.14 59.39-10.11L59.39-10.11L59.39-10.11Q62.46-14.08 62.46-21.63L62.46-21.63L62.46-21.63Q62.46-36.35 49.98-36.35L49.98-36.35Z" fill="url(#editing-outline-gradient)"></path></g></g><style>text {
  font-size: 64px;
  font-family: Arial Black;
  dominant-baseline: central;
  text-anchor: middle;
}</style></svg>