<?xml version="1.0" encoding="UTF-8"?>
<svg xmlns="http://www.w3.org/2000/svg" xmlns:xlink="http://www.w3.org/1999/xlink" width="48pt" height="48pt" viewBox="0 0 48 48" version="1.1">
<g id="surface1455194">
<path style=" stroke:none;fill-rule:nonzero;fill:rgb(100%,100%,100%);fill-opacity:1;" d="M 42 17.300781 C 42 37.800781 24 44 24 44 C 24 44 6 37.800781 6 17.300781 C 6 14.800781 6.199219 12.699219 6.398438 11 C 6.699219 8.5 8.398438 6.5 10.800781 5.898438 C 13.898438 5 18.800781 4 24 4 C 29.199219 4 34.101562 5 37.300781 5.898438 C 39.699219 6.5 41.398438 8.601562 41.699219 11 C 41.800781 12.699219 42 14.898438 42 17.300781 Z M 42 17.300781 "/>
<path style=" stroke:none;fill-rule:nonzero;fill:rgb(20%,20%,20%);fill-opacity:1;" d="M 24 7 C 28.898438 7 33.5 8 36.5 8.800781 C 37.699219 9.101562 38.5 10.101562 38.699219 11.398438 C 38.898438 13.300781 39 15.300781 39 17.300781 C 39 32.898438 27.5 39.199219 24 40.699219 C 20.5 39.101562 9 32.800781 9 17.300781 C 9 15.300781 9.101562 13.300781 9.300781 11.398438 C 9.398438 10.101562 10.300781 9.101562 11.5 8.800781 C 14.5 8 19.101562 7 24 7 M 24 4 C 18.800781 4 13.898438 5 10.699219 5.898438 C 8.398438 6.5 6.601562 8.601562 6.398438 11 C 6.199219 12.699219 6 14.898438 6 17.300781 C 6 37.800781 24 44 24 44 C 24 44 42 37.800781 42 17.300781 C 42 14.800781 41.800781 12.699219 41.601562 11 C 41.300781 8.5 39.601562 6.5 37.199219 5.898438 C 34.101562 5 29.199219 4 24 4 Z M 24 4 "/>
<path style=" stroke:none;fill-rule:nonzero;fill:rgb(0%,0%,0%);fill-opacity:1;" d="M 23 28 L 25 28 L 25 36 L 23 36 Z M 23 28 "/>
<path style=" stroke:none;fill-rule:nonzero;fill:rgb(20%,20%,20%);fill-opacity:1;" d="M 24 10 C 24 10 18 15 18 23 C 18 28.199219 21.300781 31.5 23 33 L 24 30 L 25 33 C 26.699219 31.5 30 28.199219 30 23 C 30 15 24 10 24 10 Z M 24 10 "/>
<path style=" stroke:none;fill-rule:nonzero;fill:rgb(0%,0%,0%);fill-opacity:1;" d="M 24 10 C 24 10 18 15 18 23 C 18 28.199219 21.300781 31.5 23 33 L 24 30 Z M 24 10 "/>
<path style=" stroke:none;fill-rule:nonzero;fill:rgb(0%,0%,0%);fill-opacity:1;" d="M 25.84375 43.460938 L 26.453125 43.460938 L 27.617188 46.371094 L 28.785156 43.460938 L 29.394531 43.460938 L 29.394531 47.03125 L 28.925781 47.03125 L 28.925781 45.640625 L 28.96875 44.140625 L 27.796875 47.03125 L 27.4375 47.03125 L 26.265625 44.144531 L 26.3125 45.640625 L 26.3125 47.03125 L 25.84375 47.03125 Z M 30.035156 45.710938 L 30.035156 45.679688 C 30.035156 45.421875 30.085938 45.1875 30.1875 44.976562 C 30.289062 44.769531 30.433594 44.609375 30.617188 44.496094 C 30.796875 44.382812 31.007812 44.328125 31.242188 44.328125 C 31.601562 44.328125 31.894531 44.453125 32.117188 44.703125 C 32.339844 44.953125 32.453125 45.285156 32.453125 45.703125 L 32.453125 45.734375 C 32.453125 45.992188 32.402344 46.222656 32.304688 46.429688 C 32.207031 46.636719 32.0625 46.796875 31.878906 46.910156 C 31.695312 47.023438 31.484375 47.082031 31.246094 47.082031 C 30.886719 47.082031 30.59375 46.957031 30.371094 46.707031 C 30.148438 46.457031 30.035156 46.125 30.035156 45.710938 Z M 30.492188 45.734375 C 30.492188 46.027344 30.558594 46.265625 30.695312 46.441406 C 30.832031 46.621094 31.015625 46.710938 31.246094 46.710938 C 31.476562 46.710938 31.660156 46.621094 31.796875 46.441406 C 31.929688 46.257812 32 46.007812 32 45.679688 C 32 45.390625 31.929688 45.152344 31.789062 44.972656 C 31.652344 44.792969 31.46875 44.703125 31.242188 44.703125 C 31.015625 44.703125 30.835938 44.789062 30.699219 44.96875 C 30.5625 45.148438 30.492188 45.402344 30.492188 45.734375 Z M 33.019531 44.378906 L 33.449219 44.378906 L 33.464844 44.710938 C 33.667969 44.457031 33.933594 44.328125 34.261719 44.328125 C 34.820312 44.328125 35.101562 44.644531 35.109375 45.277344 L 35.109375 47.03125 L 34.652344 47.03125 L 34.652344 45.277344 C 34.652344 45.085938 34.609375 44.941406 34.523438 44.851562 C 34.4375 44.757812 34.304688 44.710938 34.125 44.710938 C 33.976562 44.710938 33.847656 44.753906 33.734375 44.832031 C 33.625 44.910156 33.539062 45.011719 33.476562 45.140625 L 33.476562 47.03125 L 33.019531 47.03125 Z M 35.6875 45.683594 C 35.6875 45.269531 35.78125 44.941406 35.96875 44.695312 C 36.164062 44.449219 36.417969 44.328125 36.734375 44.328125 C 37.054688 44.328125 37.308594 44.441406 37.488281 44.671875 L 37.511719 44.378906 L 37.925781 44.378906 L 37.925781 46.96875 C 37.925781 47.3125 37.824219 47.582031 37.621094 47.78125 C 37.417969 47.976562 37.144531 48.074219 36.800781 48.074219 C 36.609375 48.074219 36.421875 48.035156 36.238281 47.953125 C 36.054688 47.871094 35.917969 47.761719 35.820312 47.617188 L 36.054688 47.347656 C 36.25 47.585938 36.488281 47.707031 36.769531 47.707031 C 36.988281 47.707031 37.164062 47.644531 37.285156 47.519531 C 37.40625 47.394531 37.46875 47.21875 37.46875 46.996094 L 37.46875 46.765625 C 37.289062 46.976562 37.042969 47.082031 36.726562 47.082031 C 36.417969 47.082031 36.164062 46.957031 35.972656 46.707031 C 35.78125 46.457031 35.6875 46.117188 35.6875 45.683594 Z M 36.140625 45.734375 C 36.140625 46.035156 36.203125 46.269531 36.324219 46.441406 C 36.449219 46.609375 36.621094 46.695312 36.839844 46.695312 C 37.125 46.695312 37.335938 46.566406 37.46875 46.304688 L 37.46875 45.09375 C 37.332031 44.839844 37.125 44.710938 36.84375 44.710938 C 36.625 44.710938 36.453125 44.800781 36.328125 44.972656 C 36.203125 45.144531 36.140625 45.398438 36.140625 45.734375 Z M 38.492188 45.710938 L 38.492188 45.679688 C 38.492188 45.421875 38.542969 45.1875 38.644531 44.976562 C 38.746094 44.769531 38.890625 44.609375 39.070312 44.496094 C 39.253906 44.382812 39.460938 44.328125 39.695312 44.328125 C 40.058594 44.328125 40.347656 44.453125 40.574219 44.703125 C 40.796875 44.953125 40.90625 45.285156 40.90625 45.703125 L 40.90625 45.734375 C 40.90625 45.992188 40.859375 46.222656 40.757812 46.429688 C 40.660156 46.636719 40.519531 46.796875 40.335938 46.910156 C 40.152344 47.023438 39.9375 47.082031 39.699219 47.082031 C 39.339844 47.082031 39.050781 46.957031 38.824219 46.707031 C 38.601562 46.457031 38.492188 46.125 38.492188 45.710938 Z M 38.949219 45.734375 C 38.949219 46.027344 39.015625 46.265625 39.152344 46.441406 C 39.289062 46.621094 39.46875 46.710938 39.699219 46.710938 C 39.929688 46.710938 40.113281 46.621094 40.25 46.441406 C 40.382812 46.257812 40.453125 46.007812 40.453125 45.679688 C 40.453125 45.390625 40.382812 45.152344 40.246094 44.972656 C 40.109375 44.792969 39.925781 44.703125 39.695312 44.703125 C 39.472656 44.703125 39.289062 44.789062 39.152344 44.96875 C 39.015625 45.148438 38.949219 45.402344 38.949219 45.734375 Z M 42.535156 47.03125 L 41.546875 47.03125 L 41.546875 43.460938 L 42.554688 43.460938 C 42.863281 43.460938 43.140625 43.527344 43.378906 43.667969 C 43.617188 43.804688 43.800781 44 43.933594 44.253906 C 44.0625 44.503906 44.128906 44.796875 44.128906 45.125 L 44.128906 45.355469 C 44.128906 45.691406 44.066406 45.984375 43.933594 46.238281 C 43.804688 46.492188 43.617188 46.6875 43.378906 46.824219 C 43.136719 46.957031 42.855469 47.027344 42.535156 47.03125 Z M 42.566406 43.847656 L 42.019531 43.847656 L 42.019531 46.648438 L 42.511719 46.648438 C 42.875 46.648438 43.160156 46.535156 43.359375 46.308594 C 43.5625 46.082031 43.664062 45.761719 43.664062 45.34375 L 43.664062 45.136719 C 43.664062 44.730469 43.570312 44.414062 43.378906 44.191406 C 43.1875 43.964844 42.917969 43.851562 42.566406 43.847656 Z M 46.078125 47.03125 L 44.84375 47.03125 L 44.84375 43.460938 L 46.007812 43.460938 C 46.394531 43.460938 46.6875 43.539062 46.882812 43.699219 C 47.078125 43.863281 47.175781 44.097656 47.175781 44.410156 C 47.175781 44.578125 47.128906 44.726562 47.03125 44.855469 C 46.9375 44.984375 46.808594 45.082031 46.644531 45.152344 C 46.839844 45.207031 46.992188 45.308594 47.101562 45.460938 C 47.214844 45.609375 47.273438 45.792969 47.273438 46 C 47.273438 46.320312 47.167969 46.574219 46.960938 46.757812 C 46.753906 46.941406 46.457031 47.03125 46.078125 47.03125 Z M 46.097656 45.359375 L 45.3125 45.359375 L 45.3125 46.648438 L 46.089844 46.648438 C 46.308594 46.648438 46.480469 46.589844 46.609375 46.476562 C 46.734375 46.363281 46.796875 46.207031 46.796875 46.007812 C 46.796875 45.574219 46.566406 45.359375 46.097656 45.359375 Z M 45.3125 43.847656 L 45.3125 44.984375 L 46.023438 44.984375 C 46.230469 44.984375 46.394531 44.933594 46.515625 44.828125 C 46.640625 44.726562 46.703125 44.585938 46.703125 44.410156 C 46.703125 44.214844 46.644531 44.070312 46.53125 43.980469 C 46.417969 43.890625 46.242188 43.847656 46.007812 43.847656 Z M 45.3125 43.847656 "/>
</g>
</svg>
